<svg xmlns="http://www.w3.org/2000/svg" version="1.1" xmlns:xlink="http://www.w3.org/1999/xlink" xmlns:svgjs="http://svgjs.com/svgjs" viewBox="0 0 640 400" data-background-color="#ffffff" preserveAspectRatio="xMidYMid meet" height="400" width="640"><rect width="640" height="400" x="0" y="0" opacity="1" fill="#ffffff" data-fill-palette-color="background" id="background"></rect><g id="tight-bounds" transform="matrix(1,0,0,1,160,20)"><svg viewBox="0 0 320 360" height="360" width="320"><g><svg xmlns="http://www.w3.org/2000/svg" version="1.1" xmlns:xlink="http://www.w3.org/1999/xlink" xmlns:svgjs="http://svgjs.com/svgjs"></svg></g><g><svg viewBox="0 0 320 360" height="360" width="320"><g><path d="M20.961 227.22l3.726 4.658-1.863-6.056c-0.466-2.795-3.726 0.466-1.863 1.398M25.153 224.425c1.397 2.329 2.795 4.658 2.795 6.987 0 3.261 2.795 4.658 5.123 5.589-3.261-3.726-5.124-13.974-7.918-12.576M204.017 26.929c7.918 0 15.371-0.932 23.756 0.931 20.495 5.124 37.729 15.371 49.374 29.811l32.606 52.169c1.397 13.042 4.192 27.482 3.726 43.319 3.261 0 2.795-4.658 6.521-5.59-3.726 9.316-5.59 20.961-6.521 34.469-2.329-7.453 0-18.632 0.466-24.687-3.261 5.124-5.124 1.397-5.124-0.932 0.466-3.726-1.397-3.261-2.795-4.658-5.124-4.658-8.384-9.782-12.11-17.7 2.329-6.055 2.795-14.905-4.658-19.563-2.329-1.397-5.124-3.726-6.521-7.453-1.863-5.124-5.124-11.179-4.193-19.097 0.466-2.329-6.987 5.124-11.179 1.863-18.166-12.576-36.332-27.016-58.224-39.127-11.645 0-20.029-4.192-24.221-9.316-3.726-4.658-0.932-10.713 4.658-11.179 3.261 0 6.987-0.932 9.782 0.932 0.466-1.863 2.329-4.192 4.657-4.192M157.904 16.215l0.932 0.466c4.658 0.932 6.987 7.453 12.11 5.124 0 3.261 0.466 6.521-0.466 8.85-1.397 3.726-5.59 3.726-8.85 3.726-31.208-1.863-49.374 11.179-68.471 22.358-5.124 3.261-10.713 5.59-14.906 9.782-20.029 18.632-41.921 35.866-47.045 70.335l-4.192 38.195c-0.466 4.192-5.124 8.384-4.192 13.508l3.26 22.824c-3.261-3.261-5.124 0.932-4.192 2.795 0.466 1.397 2.329 6.055 5.124 1.863 3.726 6.987 7.453 20.495 12.576 26.55 15.837 18.632 36.332 35.4 53.101 52.169 4.192-0.932 7.453-0.932 8.384-3.727 1.397 2.795-1.397 5.59-3.726 6.056 7.453 4.658 15.837 8.85 27.016 9.781 14.44 0.932 27.948 3.261 40.524 6.522 6.521-1.863 13.042-2.795 20.029-3.261 2.329 0 3.726-3.726 6.521-4.658l0.466-4.658c2.795 4.192 2.329-1.397 0.466-4.192 3.261 2.795 4.192 5.124 5.589 6.987 0-1.397 3.726-6.521 3.727-0.466l0.931-6.055c1.397-0.932 1.863 5.124 3.261 0.931 1.397-4.192 4.192-0.932 6.987-2.329-0.932 1.863-0.466 5.59 2.794 3.261l3.727-3.261c2.329 5.59 6.055 3.261 7.918 2.329 20.495-13.042 40.99-28.413 60.553-43.784l-0.466 6.055 2.329-7.453c2.329 2.329 4.192 0.466 5.124-0.931 2.795-4.658 6.521-9.316 12.577-13.508-7.453 20.029-16.303 35.866-27.482 48.908l-4.658 5.59c0 3.261-0.932 7.453-4.658 7.918-1.863 0.466-5.59-0.932-8.384 1.863-1.397 1.863 3.261 5.59-0.466 2.795-3.261-2.329-6.521 0-10.248 0.932-2.795 0.932 1.863 3.726 2.795 5.589 0.932 1.863 1.863 3.726 1.398 6.056l-5.124-5.59c-6.055 3.261-9.782 9.316-14.906 13.974-2.329 1.863-1.397 5.124-1.397 7.918-3.261 0-6.987-0.932-8.85 0.932-1.397 1.863-0.932 4.658-0.932 7.453-4.658-0.466-5.124-7.453-9.315-6.056-4.192 0.932-8.85 1.397-12.577 3.727 2.795 5.59-4.658 2.329-3.726 3.26-6.987-4.192-13.042-7.453-20.495-4.658-15.837-5.124-35.4-2.795-49.84-0.931 0-2.329 0.466-4.658-0.466-5.124-0.932 2.329-3.726 1.397-3.26 1.397-8.85-6.055-17.7-9.782-27.016-14.905-8.384 0.932-16.303-3.261-18.632-5.59-6.521-6.055-13.974-2.795-20.029-4.192-13.042-3.261-17.7-16.769-19.098-26.084-0.932-4.658-4.658-6.521-6.055-6.056-6.055-19.563-15.371-37.263-22.824-55.429-1.863-4.658-1.397-9.316-1.397-14.44 2.329 0.932 4.658 0.466 4.192-2.794-2.329-15.371-7.918-27.016-13.974-38.195 3.261-15.837 3.726-34.469 11.179-48.443 6.521-12.576 18.632-19.098 27.016-29.811 2.795-3.726 2.795-8.85 5.59-12.11 9.316-9.316 18.632-19.098 28.879-27.482 4.658-3.726 10.247 0 17.234-1.397 2.329-8.384 11.645-15.837 20.495-13.508 3.726 0.932 11.179-8.85 13.508-9.782 3.726-1.397 1.863 3.726 1.863 6.987 8.85-6.987 20.961-10.713 32.14-14.906" fill="#113f67" data-fill-palette-color="tertiary"></path></g><g transform="matrix(1,0,0,1,56,92.5880424260524)"><svg viewBox="0 0 208 174.8239151478952" height="174.8239151478952" width="208"><g><svg viewBox="0 0 208 174.8239151478952" height="174.8239151478952" width="208"><g transform="matrix(1,0,0,1,0,105.66680633137413)"><svg viewBox="0 0 208 69.15710881652106" height="69.15710881652106" width="208"><g><svg viewBox="0 0 208 69.15710881652106" height="69.15710881652106" width="208"><g><svg viewBox="0 0 208 69.15710881652106" height="69.15710881652106" width="208"><g transform="matrix(1,0,0,1,0,0)"><svg width="208" viewBox="5.42 -38.16 153.68 51.099999999999994" height="69.15710881652106" data-palette-color="#113f67"><path d="M5.42 0L5.42-38.16 13.16-38.16 13.16-6.79 35.35-6.79 35.35 0 5.42 0ZM40.21-14.4L40.21-14.4Q40.21-17.5 41.46-20.21 42.72-22.92 45.05-24.95 47.39-26.98 50.69-28.15 54-29.32 58.13-29.32L58.13-29.32Q62.25-29.32 65.56-28.15 68.87-26.98 71.2-24.95 73.53-22.92 74.79-20.21 76.05-17.5 76.05-14.4L76.05-14.4Q76.05-11.3 74.79-8.59 73.53-5.88 71.2-3.86 68.87-1.83 65.56-0.66 62.25 0.51 58.13 0.51L58.13 0.51Q54 0.51 50.69-0.66 47.39-1.83 45.05-3.86 42.72-5.88 41.46-8.59 40.21-11.3 40.21-14.4ZM47.8-14.4L47.8-14.4Q47.8-12.67 48.5-11.12 49.19-9.57 50.52-8.39 51.85-7.2 53.77-6.51 55.69-5.81 58.13-5.81L58.13-5.81Q60.57-5.81 62.49-6.51 64.4-7.2 65.73-8.39 67.06-9.57 67.76-11.12 68.45-12.67 68.45-14.4L68.45-14.4Q68.45-16.14 67.76-17.7 67.06-19.26 65.73-20.45 64.4-21.63 62.49-22.33 60.57-23.02 58.13-23.02L58.13-23.02Q55.69-23.02 53.77-22.33 51.85-21.63 50.52-20.45 49.19-19.26 48.5-17.7 47.8-16.14 47.8-14.4ZM85.18 10.99L87.86 4.88Q89.23 5.37 90.64 5.7 92.06 6.03 93.39 6.24 94.72 6.45 95.94 6.53 97.16 6.62 98.12 6.62L98.12 6.62Q101 6.62 103.13 5.92 105.27 5.22 106.7 4.05 108.12 2.88 108.83 1.33 109.54-0.22 109.54-1.95L109.54-1.95 109.54-3.2Q108.61-2.56 107.37-1.98 106.12-1.39 104.63-0.95 103.14-0.51 101.47-0.24 99.8 0.02 98.02 0.02L98.02 0.02Q94.48 0.02 91.47-1.04 88.47-2.1 86.27-4.02 84.08-5.93 82.84-8.62 81.61-11.3 81.61-14.58L81.61-14.58Q81.61-17.92 82.91-20.64 84.2-23.36 86.48-25.29 88.76-27.22 91.89-28.27 95.01-29.32 98.68-29.32L98.68-29.32Q100.24-29.32 101.78-29.13 103.32-28.93 104.72-28.59 106.12-28.25 107.36-27.77 108.59-27.29 109.54-26.73L109.54-26.73 109.54-28.81 116.77-28.81 116.77-3.3Q116.77 0.63 115.57 3.66 114.37 6.69 112.07 8.75 109.76 10.82 106.34 11.88 102.92 12.94 98.51 12.94L98.51 12.94Q96.92 12.94 95.21 12.81 93.5 12.67 91.78 12.41 90.06 12.16 88.39 11.8 86.71 11.45 85.18 10.99L85.18 10.99ZM89.2-14.65L89.2-14.65Q89.2-12.92 89.9-11.39 90.6-9.86 91.89-8.73 93.18-7.59 95.01-6.95 96.85-6.3 99.14-6.3L99.14-6.3Q100.63-6.3 102.11-6.58 103.58-6.86 104.94-7.37 106.29-7.89 107.48-8.62 108.66-9.35 109.54-10.25L109.54-10.25 109.54-19.75Q108.44-20.63 107.22-21.24 106-21.85 104.73-22.24 103.46-22.63 102.17-22.81 100.87-23 99.65-23L99.65-23Q97.16-23 95.22-22.34 93.28-21.68 91.95-20.54 90.62-19.41 89.91-17.9 89.2-16.38 89.2-14.65ZM123.26-14.4L123.26-14.4Q123.26-17.5 124.52-20.21 125.77-22.92 128.11-24.95 130.44-26.98 133.74-28.15 137.05-29.32 141.18-29.32L141.18-29.32Q145.31-29.32 148.61-28.15 151.92-26.98 154.25-24.95 156.58-22.92 157.84-20.21 159.1-17.5 159.1-14.4L159.1-14.4Q159.1-11.3 157.84-8.59 156.58-5.88 154.25-3.86 151.92-1.83 148.61-0.66 145.31 0.51 141.18 0.51L141.18 0.51Q137.05 0.51 133.74-0.66 130.44-1.83 128.11-3.86 125.77-5.88 124.52-8.59 123.26-11.3 123.26-14.4ZM130.85-14.4L130.85-14.4Q130.85-12.67 131.55-11.12 132.24-9.57 133.57-8.39 134.9-7.2 136.82-6.51 138.74-5.81 141.18-5.81L141.18-5.81Q143.62-5.81 145.54-6.51 147.45-7.2 148.78-8.39 150.11-9.57 150.81-11.12 151.51-12.67 151.51-14.4L151.51-14.4Q151.51-16.14 150.81-17.7 150.11-19.26 148.78-20.45 147.45-21.63 145.54-22.33 143.62-23.02 141.18-23.02L141.18-23.02Q138.74-23.02 136.82-22.33 134.9-21.63 133.57-20.45 132.24-19.26 131.55-17.7 130.85-16.14 130.85-14.4Z" opacity="1" transform="matrix(1,0,0,1,0,0)" fill="#113f67" class="undefined-text-0" data-fill-palette-color="primary" id="text-0"></path></svg></g></svg></g></svg></g></svg></g><g transform="matrix(1,0,0,1,56.21243780778393,0)"><svg viewBox="0 0 95.57512438443214 95.57512438443212" height="95.57512438443212" width="95.57512438443214"><g><svg xmlns="http://www.w3.org/2000/svg" xmlns:xlink="http://www.w3.org/1999/xlink" version="1.1" x="0" y="0" viewBox="10.064 11.726999999999999 78.936 78.93599999999999" enable-background="new 0 0 100 100" xml:space="preserve" height="95.57512438443212" width="95.57512438443214" class="icon-icon-0" fill="#87c0cd" data-fill-palette-color="accent" id="icon-0"><path d="M89 41.809l-4.923-4.923v-6.962L70.803 16.65h-6.962l-4.923-4.923H40.146l-4.923 4.923h-6.962L14.987 29.924v6.962l-4.923 4.923v18.773l4.923 4.923v6.962L28.262 85.74h6.962l4.923 4.923h18.773l4.923-4.923h6.962l13.274-13.274v-6.962L89 60.581V41.809zM70.345 17.755l12.627 12.627v5.399L64.946 17.755H70.345zM82.972 37.344v27.703L63.384 84.635H35.681L16.092 65.046V37.344l19.589-19.589h27.703L82.972 37.344zM40.604 12.832h17.857l3.818 3.818H36.786L40.604 12.832zM16.092 30.382l12.627-12.627h5.399L16.092 35.781V30.382zM11.17 60.124V42.266l3.818-3.818v25.492L11.17 60.124zM28.719 84.635L16.092 72.008v-5.399l18.026 18.026H28.719zM58.461 89.558H40.604l-3.818-3.818h25.492L58.461 89.558zM82.972 72.008L70.345 84.635h-5.399l18.026-18.026V72.008zM87.895 60.124l-3.818 3.818V38.449l3.818 3.818V60.124z" fill="#87c0cd" data-fill-palette-color="accent"></path></svg></g></svg></g><g></g></svg></g></svg></g></svg></g></svg><rect width="320" height="360" fill="transparent" stroke="transparent"></rect></g><defs></defs></svg>